<?xml version="1.0" encoding="iso-8859-1"?>
<!-- Generator: Adobe Illustrator 19.0.0, SVG Export Plug-In . SVG Version: 6.00 Build 0)  -->
<svg version="1.1" id="Layer_1" xmlns="http://www.w3.org/2000/svg" xmlns:xlink="http://www.w3.org/1999/xlink" x="0px" y="0px"
	 viewBox="0 0 512 512" style="enable-background:new 0 0 512 512;" xml:space="preserve">
<path style="fill:#FD3B6D;" d="M282.229,0h-52.456c-7.675,0-13.898,6.222-13.898,13.898v91.988h80.253V13.898
	C296.127,6.222,289.904,0,282.229,0z"/>
<path style="fill:#FCB5B5;" d="M319.653,191.927c-19.923-34.525-18.008-56.061-15.914-64.472L256,104.291l-47.74,23.164
	c2.094,8.41,4.01,29.948-15.914,64.472c-32.165,55.737-59.021,102.323-59.021,167.77c0,62.759,26.97,109.664,55.502,137.989
	C199.233,508.015,225.648,512,256,512c30.352,0,56.767-3.985,67.172-14.314c28.532-28.325,55.502-75.23,55.502-137.989
	C378.674,294.251,351.819,247.664,319.653,191.927z"/>
<path style="fill:#FF738E;" d="M299.341,82.722h-86.683c-12.474,0-22.585,10.111-22.585,22.585c0,10.967,7.82,20.101,18.186,22.149
	h95.48c10.366-2.048,18.186-11.182,18.186-22.149C321.926,92.833,311.815,82.722,299.341,82.722z"/>
<path style="fill:#FD3B6D;" d="M326.557,359.693c0,49.084-21.346,80.865-36.425,97.184c-4.285,1.1-14.547,3-34.132,3
	c-19.585,0-29.847-1.899-34.132-3c-15.08-16.319-36.425-48.1-36.425-97.184c0-18.659,6.37-41.637,16.099-62.334L256,276.604
	l54.458,20.755C320.187,318.056,326.557,341.035,326.557,359.693z"/>
<path style="fill:#FF738E;" d="M310.458,297.359H201.542c14.176-30.171,35.452-55.501,54.458-55.501
	S296.282,267.188,310.458,297.359z"/>
<g>
</g>
<g>
</g>
<g>
</g>
<g>
</g>
<g>
</g>
<g>
</g>
<g>
</g>
<g>
</g>
<g>
</g>
<g>
</g>
<g>
</g>
<g>
</g>
<g>
</g>
<g>
</g>
<g>
</g>
</svg>
