<?xml version="1.0" encoding="iso-8859-1"?>
<!-- Generator: Adobe Illustrator 19.0.0, SVG Export Plug-In . SVG Version: 6.00 Build 0)  -->
<svg version="1.1" id="Layer_1" xmlns="http://www.w3.org/2000/svg" xmlns:xlink="http://www.w3.org/1999/xlink" x="0px" y="0px"
	 viewBox="0 0 512 512" style="enable-background:new 0 0 512 512;" xml:space="preserve">
<path style="fill:#9BD6FF;" d="M469.401,60.943H255.514L213.718,242.69l41.796,181.747h231.65V78.706
	C487.164,68.895,479.211,60.943,469.401,60.943z"/>
<path style="fill:#C4EAFF;" d="M256,60.943H42.599c-9.811,0-17.763,7.953-17.763,17.763v345.733H256V60.943z"/>
<polygon style="fill:#2D64BC;" points="256,356.024 214.204,228.873 256,108.459 439.647,108.459 439.647,356.024 "/>
<rect x="72.349" y="108.46" style="fill:#6499F3;" width="183.16" height="247.568"/>
<polygon style="fill:#FF7D3C;" points="256,228.874 235.102,356.024 315.832,356.024 "/>
<polygon style="fill:#FFB995;" points="256,228.873 196.168,356.024 256,356.024 "/>
<path style="fill:#FF8E00;" d="M348.163,162.358l-20.898,38.386l20.898,36.785c20.758,0,37.586-16.828,37.586-37.586
	C385.748,179.185,368.921,162.358,348.163,162.358z"/>
<path style="fill:#2D64BC;" d="M256,403.541l-20.898,23.758L256,451.056h238.237c9.811,0,17.763-7.953,17.763-17.763V403.54H256
	V403.541z"/>
<path style="fill:#6499F3;" d="M256,403.541H0v29.753c0,9.811,7.953,17.763,17.763,17.763H256V403.541z"/>
<path style="fill:#FFBA00;" d="M348.163,162.358c-20.758,0-37.586,16.828-37.586,37.586s16.828,37.586,37.586,37.586V162.358z"/>
<polygon style="fill:#E04C00;" points="176.292,186.633 155.394,356.024 256,356.024 "/>
<polygon style="fill:#FF7D3C;" points="176.292,186.633 96.584,356.024 176.292,356.024 "/>
<g>
</g>
<g>
</g>
<g>
</g>
<g>
</g>
<g>
</g>
<g>
</g>
<g>
</g>
<g>
</g>
<g>
</g>
<g>
</g>
<g>
</g>
<g>
</g>
<g>
</g>
<g>
</g>
<g>
</g>
</svg>
