<?xml version="1.0" encoding="iso-8859-1"?>
<!-- Generator: Adobe Illustrator 19.0.0, SVG Export Plug-In . SVG Version: 6.00 Build 0)  -->
<svg version="1.1" id="Layer_1" xmlns="http://www.w3.org/2000/svg" xmlns:xlink="http://www.w3.org/1999/xlink" x="0px" y="0px"
	 viewBox="0 0 512 512" style="enable-background:new 0 0 512 512;" xml:space="preserve">
<path style="fill:#F8F8F9;" d="M53.895,512C24.129,512,0,487.871,0,458.105v-94.316C0,162.875,162.874,0.003,363.789,0.001
	L458.105,0C487.871,0,512,24.127,512,53.895v94.316C512,349.125,349.126,512,148.211,512H53.895z"/>
<path style="fill:#EDEDED;" d="M512,148.211V53.895c0-14.767-5.942-28.142-15.563-37.877L16.019,496.437
	C25.752,506.057,39.129,512,53.895,512h94.316C349.126,512,512,349.125,512,148.211z"/>
<g>
	<path style="fill:#EFC27B;" d="M512,140.432V53.895C512,24.127,487.871,0,458.105,0l-86.537,0.001L512,140.432z"/>
	<path style="fill:#EFC27B;" d="M317.344,2.94C153.572,23.811,23.809,153.572,2.94,317.342l191.718,191.72
		c163.771-20.871,293.534-150.633,314.403-314.406L317.344,2.94z"/>
	<path style="fill:#EFC27B;" d="M0,371.568v86.537C0,487.871,24.129,512,53.895,512h86.537L0,371.568z"/>
</g>
<g>
	<path style="fill:#ECB45C;" d="M512,140.432V53.895c0-14.767-5.942-28.142-15.563-37.877L442.01,70.444L512,140.432z"/>
	<path style="fill:#ECB45C;" d="M70.443,442.011l-54.426,54.427C25.752,506.057,39.129,512,53.895,512h86.537L70.443,442.011z"/>
	<path style="fill:#ECB45C;" d="M413.429,99.025L99.026,413.429l95.632,95.634C358.43,488.192,488.192,358.43,509.061,194.657
		L413.429,99.025z"/>
</g>
<polygon style="fill:#88888F;" points="336.984,251.236 365.565,222.654 341.748,198.834 375.093,165.489 346.508,136.907 
	313.163,170.252 289.347,146.436 260.766,175.016 284.582,198.834 256,227.417 232.181,203.599 203.599,232.181 227.418,256 
	198.834,284.583 175.016,260.766 146.435,289.347 170.252,313.165 136.907,346.509 165.489,375.091 198.835,341.745 
	222.655,365.564 251.237,336.984 227.418,313.163 256,284.582 279.819,308.401 308.401,279.819 284.582,256 313.163,227.416 "/>
<g>
</g>
<g>
</g>
<g>
</g>
<g>
</g>
<g>
</g>
<g>
</g>
<g>
</g>
<g>
</g>
<g>
</g>
<g>
</g>
<g>
</g>
<g>
</g>
<g>
</g>
<g>
</g>
<g>
</g>
</svg>
